<?xml version="1.0" encoding="UTF-8" standalone="no"?>
<!-- Created with Inkscape (http://www.inkscape.org/) -->

<svg
   xmlns:dc="http://purl.org/dc/elements/1.1/"
   xmlns:cc="http://creativecommons.org/ns#"
   xmlns:rdf="http://www.w3.org/1999/02/22-rdf-syntax-ns#"
   xmlns:svg="http://www.w3.org/2000/svg"
   xmlns="http://www.w3.org/2000/svg"
   xmlns:sodipodi="http://sodipodi.sourceforge.net/DTD/sodipodi-0.dtd"
   xmlns:inkscape="http://www.inkscape.org/namespaces/inkscape"
   width="512"
   height="512"
   viewBox="0 0 135.46666 135.46667"
   version="1.1"
   id="svg1147"
   sodipodi:docname="iqra.svg"
   inkscape:version="0.92.5 (2060ec1f9f, 2020-04-08)">
  <defs
     id="defs1141" />
  <sodipodi:namedview
     id="base"
     pagecolor="#ffffff"
     bordercolor="#666666"
     borderopacity="1.0"
     inkscape:pageopacity="0.0"
     inkscape:pageshadow="2"
     inkscape:zoom="0.7"
     inkscape:cx="368.25002"
     inkscape:cy="122.16389"
     inkscape:document-units="mm"
     inkscape:current-layer="layer1"
     showgrid="true"
     inkscape:window-width="1366"
     inkscape:window-height="745"
     inkscape:window-x="-8"
     inkscape:window-y="-8"
     inkscape:window-maximized="1"
     showborder="true"
     units="px">
    <inkscape:grid
       type="xygrid"
       id="grid1746" />
  </sodipodi:namedview>
  <metadata
     id="metadata1144">
    <rdf:RDF>
      <cc:Work
         rdf:about="">
        <dc:format>image/svg+xml</dc:format>
        <dc:type
           rdf:resource="http://purl.org/dc/dcmitype/StillImage" />
        <dc:title></dc:title>
      </cc:Work>
    </rdf:RDF>
  </metadata>
  <g
     inkscape:label="Layer 1"
     inkscape:groupmode="layer"
     id="layer1"
     transform="translate(0,-161.53332)">
    <g
       id="g1744"
       transform="matrix(1.2545894,0,0,1.2545894,-26.825101,47.782301)">
      <rect
         y="90.667923"
         x="21.381577"
         height="107.97689"
         width="107.97689"
         id="rect1726"
         style="opacity:1;fill:#0288d1;fill-opacity:1;stroke:none;stroke-width:0.80272394;stroke-miterlimit:4;stroke-dasharray:none;stroke-opacity:1" />
      <g
         style="fill:#ffffff"
         transform="matrix(3.4887525,0,0,3.4887525,-55.530609,-10.953146)"
         id="g1698">
        <path
           style="fill:#ffffff;fill-opacity:1;stroke:none;stroke-width:0.09505767px;stroke-linecap:butt;stroke-linejoin:miter;stroke-opacity:1"
           d="m 41.195523,31.785025 c 0,0 1.566736,2.452247 2.697149,3.678409 1.130413,1.226164 3.810312,3.652205 4.500075,5.623663 0.689762,1.971457 0.442566,4.038244 -0.237645,5.907155 -0.68021,1.86891 -3.326469,4.471834 -5.262121,5.567664 -1.935652,1.09583 -5.372225,1.154272 -5.372225,1.154272 v -0.624545 c 0,0 2.826987,-0.0076 4.625344,-1.005016 1.798357,-0.997456 4.535845,-3.501403 5.363968,-5.499764 0.828124,-1.998362 0.299208,-3.694533 -0.0451,-5.05722 -0.344307,-1.362689 -4.833707,-5.29173 -5.682014,-6.736248 -0.848307,-1.444518 -0.587433,-3.00837 -0.587433,-3.00837 z"
           id="path1600"
           inkscape:connector-curvature="0"
           sodipodi:nodetypes="czzzzcczzzzc" />
        <path
           style="fill:#ffffff;fill-opacity:1;stroke:none;stroke-width:0.09505767px;stroke-linecap:butt;stroke-linejoin:miter;stroke-opacity:1"
           d="m 37.520756,32.661958 c 0,0 0.648454,-0.362585 1.312022,-1.442385 0.663568,-1.079799 0.656442,-1.76383 0.656442,-1.76383 0,0 0.30393,0.79358 0.216053,1.680398 -0.08788,0.886817 -1.416336,2.160512 -1.416336,2.160512 0,0 1.159554,1.126325 1.752062,1.757386 0.592508,0.631061 1.432125,1.766015 1.896346,2.65704 0.46422,0.891025 0.613657,1.979028 0.593567,3.002375 -0.02009,1.023346 -0.213578,1.770695 -0.807706,3.155893 -0.594127,1.385199 -2.155533,2.523915 -2.858133,3.086541 -0.7026,0.562626 -1.002414,0.724539 -1.002414,0.724539 0,0 0.309944,0.183958 0.859837,0.49272 0.549893,0.308762 0.934765,0.487145 0.934765,0.487145 0,0 0.570314,-0.533571 1.152273,-0.840199 0.581958,-0.306629 2.359588,-0.89961 2.359588,-0.89961 0,0 1.927946,-0.661184 2.150568,-0.735689 0.222622,-0.0745 0.511252,-0.26651 0.507032,-0.525213 -0.0042,-0.258704 -0.282658,-0.509399 -0.528125,-0.624148 -0.245467,-0.114748 -1.647068,-0.008 -1.992472,-0.024 -0.345404,-0.01596 -0.77329,-0.47959 -0.816193,-0.768182 -0.0429,-0.288593 -0.09021,-0.934394 0.408096,-1.584376 0.498303,-0.649981 1.344873,-1.059291 2.100498,-0.480114 0.755625,0.579178 0.974502,1.460667 1.05625,1.784658 0.08175,0.323993 0.455809,1.53078 0.005,2.408101 -0.450837,0.877321 -1.505327,1.184515 -1.505327,1.184515 0,0 -1.782804,0.550377 -2.570022,0.824181 -0.787218,0.273804 -1.707109,0.849187 -1.707109,0.849187 -0.05723,0.518978 0.179686,1.728972 -0.193752,2.266727 -0.373439,0.537755 -0.513016,0.627647 -1.074431,0.741015 -0.561416,0.113366 -1.488353,-0.408097 -1.488353,-0.408097 v -1.051882 c 0,0 0.453183,-0.29498 0.972585,-0.879473 0.5194,-0.584494 0.937927,-1.050925 0.937927,-1.050925 l -1.910542,-1.03079 v -0.35863 c 0,0 2.58718,-1.867736 3.360795,-3.526173 0.773615,-1.658437 0.998557,-2.448155 0.848936,-3.577054 -0.149621,-1.1289 -0.362735,-1.774807 -1.185016,-2.976499 -0.822281,-1.201692 -3.024715,-3.336791 -3.024715,-3.336791 z"
           id="path1602"
           inkscape:connector-curvature="0"
           sodipodi:nodetypes="czczczzzzzczczczzzzzzzzzczczzcczccczzzcc" />
        <path
           style="fill:#ffffff;fill-opacity:1;stroke:none;stroke-width:0.09505767px;stroke-linecap:butt;stroke-linejoin:miter;stroke-opacity:1"
           d="m 38.479589,51.169999 c 0,0 0.478051,-0.585658 0.712933,-0.865703 0.234882,-0.280044 0.695958,-0.81478 0.695958,-0.81478 0,0 0.03787,0.952749 -0.237644,1.273094 -0.275514,0.320345 -1.171247,0.407389 -1.171247,0.407389 z"
           id="path1604"
           inkscape:connector-curvature="0"
           sodipodi:nodetypes="czczc" />
        <path
           style="fill:#ffffff;fill-opacity:1;stroke:none;stroke-width:0.09505767px;stroke-linecap:butt;stroke-linejoin:miter;stroke-opacity:1"
           d="m 43.246111,43.415049 c 0,0 0.142611,-0.27321 0.408097,-0.288068 0.265485,-0.01486 0.960227,0.528125 0.960227,0.528125 0,0 -0.945203,0.217825 -1.176278,0.09602 -0.231076,-0.121802 -0.192046,-0.33608 -0.192046,-0.33608 z"
           id="path1606"
           inkscape:connector-curvature="0"
           sodipodi:nodetypes="czczc" />
        <ellipse
           style="opacity:1;fill:#ffffff;fill-opacity:1;stroke:none;stroke-width:0.10778192;stroke-miterlimit:4;stroke-dasharray:none;stroke-opacity:1"
           id="path1608"
           cx="38.988827"
           cy="43.429588"
           rx="1.1203226"
           ry="1.0863734" />
        <path
           style="fill:#ffffff;fill-opacity:1;stroke:none;stroke-width:0.09505767px;stroke-linecap:butt;stroke-linejoin:miter;stroke-opacity:1"
           d="m 37.520756,56.185989 v 1.739895 c 0,0 2.74483,-2.162044 4.769628,-2.817781 2.024798,-0.655737 5.966905,-0.785519 7.231173,-1.264607 1.264267,-0.479088 1.587123,-1.179733 1.587123,-1.179733 0,0 -0.734565,0.49364 -2.342492,0.797805 -1.607927,0.304165 -4.950072,-0.316797 -7.528229,0.738395 -2.578157,1.055191 -3.717203,1.986026 -3.717203,1.986026 z"
           id="path1612"
           inkscape:connector-curvature="0"
           sodipodi:nodetypes="cczzczzc" />
        <path
           style="fill:#ffffff;fill-opacity:1;stroke:none;stroke-width:0.09505767px;stroke-linecap:butt;stroke-linejoin:miter;stroke-opacity:1"
           d="m 37.520756,59.207465 v 0.543188 c 0,0 0.501853,-0.06933 1.018245,-0.356466 0.516392,-0.287139 0.602443,-0.831437 0.636546,-1.120325 0.05164,-0.43748 3.124473,-1.791412 4.982041,-2.350979 1.857569,-0.559566 3.755441,-0.438964 4.769858,-0.432852 1.014418,0.0061 1.290068,0.101848 1.290068,0.101848 0,0 -0.19384,-0.359344 -1.03545,-0.59411 -0.841609,-0.234766 -2.032622,-0.37476 -4.056924,-0.01698 -2.024303,0.357785 -5.050965,1.93524 -5.635562,2.29157 -0.584597,0.35633 -0.717295,0.462826 -0.840243,0.695959 -0.122947,0.233132 0.104923,0.481454 -0.280079,0.87419 -0.385002,0.392736 -0.8485,0.364953 -0.8485,0.364953 z"
           id="path1616"
           inkscape:connector-curvature="0"
           sodipodi:nodetypes="cczszzczzzzzc" />
        <path
           style="fill:#ffffff;fill-opacity:1;stroke:none;stroke-width:0.09505767px;stroke-linecap:butt;stroke-linejoin:miter;stroke-opacity:1"
           d="m 33.845988,31.785025 c 0,0 -1.566736,2.452247 -2.697149,3.67841 -1.130413,1.226163 -3.810312,3.652205 -4.500075,5.623663 -0.689762,1.971456 -0.442565,4.038244 0.237645,5.907154 0.680211,1.868911 3.326469,4.471834 5.262121,5.567664 1.935652,1.095829 5.372226,1.154273 5.372226,1.154273 v -0.624546 c 0,0 -2.826988,-0.0075 -4.625344,-1.005017 -1.798358,-0.997453 -4.535846,-3.501403 -5.363969,-5.499763 -0.828125,-1.998361 -0.299207,-3.694532 0.0451,-5.05722 0.344306,-1.362688 4.833707,-5.29173 5.682014,-6.736247 0.848306,-1.444519 0.587432,-3.008371 0.587432,-3.008371 z"
           id="path1600-2"
           inkscape:connector-curvature="0"
           sodipodi:nodetypes="czzzzcczzzzc" />
        <path
           style="fill:#ffffff;fill-opacity:1;stroke:none;stroke-width:0.09505767px;stroke-linecap:butt;stroke-linejoin:miter;stroke-opacity:1"
           d="m 37.520756,32.661958 c 0,0 -0.648454,-0.362585 -1.312022,-1.442385 -0.663569,-1.079799 -0.656443,-1.76383 -0.656443,-1.76383 0,0 -0.30393,0.79358 -0.216052,1.680398 0.08788,0.886817 1.416335,2.160512 1.416335,2.160512 0,0 -1.159554,1.126326 -1.752062,1.757386 -0.592508,0.631062 -1.432125,1.766015 -1.896346,2.65704 -0.46422,0.891025 -0.613656,1.979028 -0.593567,3.002375 0.02009,1.023346 0.213578,1.770695 0.807706,3.155894 0.594128,1.385198 2.155533,2.523915 2.858133,3.08654 0.7026,0.562624 1.002414,0.724537 1.002414,0.724537 0,0 -0.309943,0.183959 -0.859837,0.492722 -0.549893,0.308763 -0.934765,0.487146 -0.934765,0.487146 0,0 -0.570314,-0.533571 -1.152272,-0.8402 -0.581959,-0.306629 -2.359589,-0.899609 -2.359589,-0.899609 0,0 -1.927946,-0.661185 -2.150568,-0.73569 -0.222622,-0.0745 -0.511252,-0.26651 -0.507032,-0.525212 0.0042,-0.258705 0.282658,-0.509399 0.528125,-0.624149 0.245467,-0.114748 1.647068,-0.008 1.992472,-0.024 0.345404,-0.01596 0.77329,-0.47959 0.816193,-0.768183 0.0429,-0.288593 0.09021,-0.934393 -0.408096,-1.584375 -0.498302,-0.649981 -1.344873,-1.059292 -2.100498,-0.480113 -0.755625,0.579177 -0.974502,1.460666 -1.05625,1.784657 -0.08175,0.323992 -0.455809,1.53078 -0.005,2.4081 0.450837,0.877321 1.505328,1.184514 1.505328,1.184514 0,0 1.782803,0.550377 2.570022,0.824183 0.787217,0.273806 1.707108,0.849185 1.707108,0.849185 0.05723,0.518981 -0.179686,1.728973 0.193752,2.26673 0.373439,0.537752 0.513016,0.627646 1.074432,0.741014 0.561415,0.113365 1.488352,-0.408098 1.488352,-0.408098 v -1.051883 c 0,0 -0.453183,-0.294978 -0.972585,-0.879472 -0.5194,-0.584494 -0.937927,-1.050924 -0.937927,-1.050924 l 1.910511,-1.03079 v -0.358627 c 0,0 -2.58718,-1.867738 -3.360795,-3.526174 -0.773615,-1.658437 -0.998557,-2.448155 -0.848936,-3.577054 0.149621,-1.1289 0.362735,-1.774807 1.185016,-2.9765 0.822281,-1.201692 3.024715,-3.33679 3.024715,-3.33679 z"
           id="path1602-0"
           inkscape:connector-curvature="0"
           sodipodi:nodetypes="czczczzzzzczczczzzzzzzzzczczzcczccczzzcc" />
        <path
           style="fill:#ffffff;fill-opacity:1;stroke:none;stroke-width:0.09505767px;stroke-linecap:butt;stroke-linejoin:miter;stroke-opacity:1"
           d="m 36.561922,51.169999 c 0,0 -0.47805,-0.585658 -0.712933,-0.865701 -0.234882,-0.280047 -0.695958,-0.814781 -0.695958,-0.814781 0,0 -0.03787,0.952749 0.237644,1.273094 0.275514,0.320343 1.171247,0.407388 1.171247,0.407388 z"
           id="path1604-8"
           inkscape:connector-curvature="0"
           sodipodi:nodetypes="czczc" />
        <path
           style="fill:#ffffff;fill-opacity:1;stroke:none;stroke-width:0.09505767px;stroke-linecap:butt;stroke-linejoin:miter;stroke-opacity:1"
           d="m 31.795401,43.41505 c 0,0 -0.142612,-0.273211 -0.408097,-0.288069 -0.265486,-0.01486 -0.960228,0.528126 -0.960228,0.528126 0,0 0.945203,0.217824 1.176278,0.09602 0.231076,-0.121802 0.192047,-0.336079 0.192047,-0.336079 z"
           id="path1606-7"
           inkscape:connector-curvature="0"
           sodipodi:nodetypes="czczc" />
        <ellipse
           style="opacity:1;fill:#ffffff;fill-opacity:1;stroke:none;stroke-width:0.10778192;stroke-miterlimit:4;stroke-dasharray:none;stroke-opacity:1"
           id="path1608-6"
           cx="-36.052685"
           cy="43.429592"
           rx="1.1203226"
           ry="1.0863734"
           transform="scale(-1,1)" />
        <path
           style="fill:#ffffff;fill-opacity:1;stroke:none;stroke-width:0.09505767px;stroke-linecap:butt;stroke-linejoin:miter;stroke-opacity:1"
           d="m 37.520756,56.185989 v 1.739895 c 0,0 -2.74483,-2.162044 -4.769628,-2.817782 -2.024799,-0.655734 -5.966906,-0.785518 -7.231174,-1.264605 -1.264266,-0.479087 -1.587122,-1.179735 -1.587122,-1.179735 0,0 0.734564,0.493642 2.342491,0.797806 1.607927,0.304164 4.950072,-0.316796 7.528229,0.738396 2.578157,1.055188 3.717204,1.986025 3.717204,1.986025 z"
           id="path1612-2"
           inkscape:connector-curvature="0"
           sodipodi:nodetypes="cczzczzc" />
        <path
           style="fill:#ffffff;fill-opacity:1;stroke:none;stroke-width:0.09505767px;stroke-linecap:butt;stroke-linejoin:miter;stroke-opacity:1"
           d="m 37.520755,59.207465 v 0.543188 c 0,0 -0.501852,-0.06933 -1.018245,-0.356466 -0.516391,-0.287139 -0.602442,-0.831437 -0.636546,-1.120325 -0.05164,-0.43748 -3.124472,-1.791412 -4.982041,-2.350979 -1.857568,-0.559564 -3.75544,-0.438963 -4.769858,-0.432852 -1.014418,0.0061 -1.290068,0.10185 -1.290068,0.10185 0,0 0.19384,-0.359345 1.035449,-0.594111 0.84161,-0.234768 2.032623,-0.374762 4.056926,-0.01699 2.024302,0.357786 5.050964,1.935239 5.635561,2.291569 0.584597,0.356331 0.717295,0.462827 0.840243,0.695959 0.122947,0.233132 -0.104922,0.481454 0.280079,0.87419 0.385002,0.392736 0.8485,0.364953 0.8485,0.364953 z"
           id="path1616-6"
           inkscape:connector-curvature="0"
           sodipodi:nodetypes="cczszzczzzzzc" />
      </g>
    </g>
  </g>
</svg>
